<?xml version="1.0" encoding="iso-8859-1"?>
<!-- Generator: Adobe Illustrator 19.0.0, SVG Export Plug-In . SVG Version: 6.00 Build 0)  -->
<svg version="1.1" id="Capa_1" xmlns="http://www.w3.org/2000/svg" xmlns:xlink="http://www.w3.org/1999/xlink" x="0px" y="0px"
	 viewBox="0 0 492.013 492.013" style="enable-background:new 0 0 492.013 492.013;" xml:space="preserve">
<g>
	<g>
		<path d="M119.8,62.761l-41.4-17.5l-10.3-4.4l-0.6-0.3l-0.3-0.1l-1.8-0.7l-1.4-0.4l-2.7-0.9c-3.2-0.8-7.7-1.7-10.9-1.8
			c-6.5-0.3-13.1,0.8-19.1,3.1c-5.9,2.4-11.5,5.7-16,10.2c-9.3,8.5-14.9,21.1-15.3,34.2c0.1,6.5,1.1,13.1,3.6,18.8l0.9,2.2
			c0.3,0.8,0.6,1.5,0.8,1.8l1.2,2.5l2.5,5l19.8,40.2c13.4,26.8,26.7,53.5,40,80.2l0.2,0.3c2.9,5.8,8.8,10,15.7,10.5
			c47.3,3.4,94.4,6.4,141.5,9.1c47.2,2.7,86.8,1.3,84.1-8c-2.5-8.5-35.5-17.3-83.8-22.3c-43.1-4.3-86.4-8.7-129.8-13
			c-16.3-34.4-32.8-68.9-49.7-103.1l-5.8-11.8l-2.9-5.9c-0.3-0.6-0.3-0.7-0.4-1l-0.3-0.7c-0.2-0.5-0.5-0.9-0.5-1.4
			c-0.6-1.8-0.4-3.5-0.1-5.2c0.3-1.7,1.2-3.5,2.4-4.9c2.4-3.1,6.2-4.7,9.6-4.6c0.4,0,0.3,0.1,0.6,0c0.1,0,0.1-0.1,0.3-0.1l1.6,0.5
			l1.6,0.5l0.8,0.3l0,0l2.6,1.1l12.2,5l97.8,39.8l195.7,79.2c28.6,13.5,57.3,26.7,86.2,39.7c0.4,0.2,1,0.4,1.2,0.6l0.6,0.4
			c0.4,0.2,0.8,0.4,1.2,0.6c0.5,0.6,1.4,0.9,1.7,1.6c1.1,1.1,1.7,2.5,2.3,3.9c1,3,0.6,6.6-0.9,9.1c-0.5,1.3-1.9,2.3-2.6,3
			c-0.1,0-0.1,0-0.1,0.1c0,0,0.1,0-0.1,0.1l-0.7,0.3l-1.3,0.6l-1.1,0.5l0,0l-0.3,0.1l-2.8,1.1l-22.2,8.8
			c-59.2,23.5-118.2,47.8-177.3,72.4c-59,24.7-118.1,49.5-177.2,74.2l-11.1,4.6l-5.5,2.3c-0.9,0.3-0.8,0.2-1.3,0.4
			c-0.3,0.1-0.7,0.4-1,0.3c-1.2,0.3-2.3,0.2-3.4,0c-1.1-0.4-2.2-0.8-3.3-1.6c-2.1-1.6-3.5-4.2-3.5-6.3c-0.2-0.5,0.1-1.2,0-1.6
			c0.1,0,0,0.1-0.1,0.1h-0.1c0,0-0.1,0,0-0.3l0.6-1.4l0.6-1.4l0.2-0.6l1-2.1l2.7-5.4c14.2-28.6,28.5-57.2,42.7-85.8
			c5.1-10.2,9.8-27.7,10.1-33.8c0.5-12.1-9.6-1-21.9,17c-10.2,14.9-20.4,30.7-30.7,47.4c-5.1,8.3-10.3,16.9-15.5,25.6
			c-2.6,4.4-5.1,8.8-7.7,13.2l-3.9,6.7l-1.9,3.4l-1,1.7l-1.1,2.4l-0.8,1.8l-0.4,0.9l-0.4,1.4c-0.5,1.8-1.2,3.8-1.4,5.7
			c-0.2,1.8-0.4,3.5-0.5,5.3c0.1,1.8,0.2,3.6,0.3,5.4c0.9,7.2,4,14,8.7,19.6c4.6,5.6,11,10,18.2,12.4c7.3,2.4,15.4,2.4,22.7,0.3
			c4.1-1.2,6.2-2.1,8.8-3.1l7.6-2.9c5.1-2,10.2-3.9,15.3-5.9c10.2-4,20.4-8.1,30.6-12.1c98.3-39.4,196.6-78.9,295.1-118.4l36.9-15
			l4.6-1.9l2.3-0.9l1.2-0.5l0.3-0.1l1.6-0.7l0.6-0.3l2.2-1.1l1.1-0.6c0.4-0.2,1.3-0.8,1.9-1.2c2.7-1.8,5.7-3.9,7.4-5.7
			c8.1-7.7,13.3-18.4,14.2-29.3c1-10.8-1.5-22.2-8-31.4c-1.6-2.3-3.3-4.5-5.4-6.5c-1.9-2.1-4.1-3.8-6.4-5.3
			c-2.2-1.7-4.7-2.8-7.1-4.1l-1.8-0.8l-1.1-0.5l-2.3-1l-36.8-15.4c-49.1-20.5-98.3-40.6-147.8-60.4c-24.2-10.5-48.4-20.9-72.6-31.4
			L119.8,62.761z"/>
	</g>
</g>
<g>
</g>
<g>
</g>
<g>
</g>
<g>
</g>
<g>
</g>
<g>
</g>
<g>
</g>
<g>
</g>
<g>
</g>
<g>
</g>
<g>
</g>
<g>
</g>
<g>
</g>
<g>
</g>
<g>
</g>
</svg>
