<?xml version="1.0" encoding="iso-8859-1"?>
<!-- Generator: Adobe Illustrator 18.0.0, SVG Export Plug-In . SVG Version: 6.00 Build 0)  -->
<!DOCTYPE svg PUBLIC "-//W3C//DTD SVG 1.1//EN" "http://www.w3.org/Graphics/SVG/1.1/DTD/svg11.dtd">
<svg version="1.1" id="Capa_1" xmlns="http://www.w3.org/2000/svg" xmlns:xlink="http://www.w3.org/1999/xlink" x="0px" y="0px"
	 viewBox="0 0 60 60" style="enable-background:new 0 0 60 60;" xml:space="preserve">
<path d="M54,2.5H6c-3.252,0-6,2.748-6,6v33c0,3.252,2.748,6,6,6h14.555l8.702,9.669C29.446,57.38,29.717,57.5,30,57.5
	s0.554-0.12,0.743-0.331l8.702-9.669H54c3.252,0,6-2.748,6-6v-33C60,5.248,57.252,2.5,54,2.5z M12,15.5h15c0.553,0,1,0.448,1,1
	s-0.447,1-1,1H12c-0.553,0-1-0.448-1-1S11.447,15.5,12,15.5z M46,33.5H12c-0.553,0-1-0.448-1-1s0.447-1,1-1h34c0.553,0,1,0.448,1,1
	S46.553,33.5,46,33.5z M46,25.5H12c-0.553,0-1-0.448-1-1s0.447-1,1-1h34c0.553,0,1,0.448,1,1S46.553,25.5,46,25.5z"/>
<g>
</g>
<g>
</g>
<g>
</g>
<g>
</g>
<g>
</g>
<g>
</g>
<g>
</g>
<g>
</g>
<g>
</g>
<g>
</g>
<g>
</g>
<g>
</g>
<g>
</g>
<g>
</g>
<g>
</g>
</svg>
